<?xml version="1.0" encoding="utf-8"?>
<!-- Generator: Adobe Illustrator 16.0.0, SVG Export Plug-In . SVG Version: 6.00 Build 0)  -->
<svg version="1.2" baseProfile="tiny" id="Calque_1"
	 xmlns="http://www.w3.org/2000/svg" xmlns:xlink="http://www.w3.org/1999/xlink" x="0px" y="0px" width="325px" height="50px"
	 viewBox="0 0 325 50" xml:space="preserve">
<g>
	<g>
		<path d="M71.658,16.274l-2.338,0.332l4.438,9.39h0.119l4.439-9.39l-2.318-0.332v-3.458h10.824v3.458l-2.436,0.391l-7.779,14.693
			v6.031l3.063,0.588v3.439H67.827v-3.439l3.064-0.588v-6.326l-7.64-14.398l-2.417-0.391v-3.458h10.825V16.274z"/>
		<path d="M87.549,30.594c0-3.17,0.887-5.766,2.662-7.789c1.773-2.023,4.227-3.034,7.354-3.034c3.145,0,5.604,1.009,7.377,3.024
			c1.775,2.016,2.662,4.615,2.662,7.799v0.411c0,3.197-0.887,5.799-2.662,7.809c-1.773,2.009-4.219,3.014-7.336,3.014
			c-3.156,0-5.621-1.005-7.395-3.014c-1.775-2.01-2.662-4.611-2.662-7.809V30.594z M93.283,31.005c0,1.938,0.342,3.494,1.023,4.666
			c0.68,1.172,1.779,1.758,3.299,1.758c1.48,0,2.563-0.59,3.252-1.768c0.688-1.178,1.031-2.731,1.031-4.656v-0.411
			c0-1.886-0.348-3.426-1.041-4.617c-0.695-1.191-1.787-1.788-3.283-1.788c-1.49,0-2.578,0.597-3.258,1.788
			c-0.682,1.191-1.023,2.731-1.023,4.617V31.005z"/>
		<path d="M124.969,38.725c-0.682,0.995-1.523,1.762-2.525,2.299c-1,0.537-2.145,0.804-3.428,0.804c-2.238,0-3.994-0.718-5.264-2.15
			c-1.271-1.432-1.904-3.664-1.904-6.688v-8.779l-2.338-0.591v-3.456h2.338h5.736v12.866c0,1.545,0.256,2.654,0.773,3.331
			c0.52,0.672,1.287,1.011,2.309,1.011c0.902,0,1.688-0.147,2.348-0.442c0.662-0.296,1.201-0.716,1.621-1.267V24.209l-2.516-0.591
			v-3.456h2.516h5.734V37.39l2.574,0.588v3.439h-7.604L124.969,38.725z"/>
		<path d="M135.635,37.978l2.75-0.588V24.209l-3.045-0.591v-3.456h8.389l0.254,3.104c0.498-1.102,1.139-1.959,1.926-2.574
			c0.785-0.615,1.695-0.922,2.73-0.922c0.303,0,0.619,0.021,0.951,0.066c0.334,0.048,0.611,0.103,0.836,0.167l-0.609,5.228
			l-2.357-0.06c-0.838,0-1.531,0.163-2.082,0.49c-0.551,0.328-0.969,0.792-1.258,1.394V37.39l2.752,0.588v3.439h-11.236V37.978z"/>
		<path d="M161.387,14.23v-3.458h8.803V37.39l2.768,0.588v3.439h-11.275v-3.439l2.77-0.588v-22.57L161.387,14.23z"/>
		<path d="M174.428,30.594c0-3.17,0.889-5.766,2.662-7.789c1.775-2.023,4.227-3.034,7.355-3.034c3.145,0,5.602,1.009,7.377,3.024
			c1.773,2.016,2.66,4.615,2.66,7.799v0.411c0,3.197-0.887,5.799-2.66,7.809c-1.775,2.009-4.221,3.014-7.338,3.014
			c-3.154,0-5.619-1.005-7.395-3.014c-1.773-2.01-2.662-4.611-2.662-7.809V30.594z M180.166,31.005c0,1.938,0.34,3.494,1.02,4.666
			s1.781,1.758,3.299,1.758c1.482,0,2.564-0.59,3.25-1.768c0.689-1.178,1.033-2.731,1.033-4.656v-0.411
			c0-1.886-0.346-3.426-1.043-4.617c-0.693-1.191-1.785-1.788-3.279-1.788c-1.492,0-2.58,0.597-3.26,1.788s-1.02,2.731-1.02,4.617
			V31.005z"/>
		<path d="M197.33,30.965c0-3.351,0.732-6.055,2.191-8.111c1.463-2.057,3.508-3.083,6.141-3.083c1.191,0,2.238,0.266,3.143,0.794
			c0.902,0.531,1.674,1.286,2.316,2.27l0.412-2.672h4.992v20.625c0,2.803-0.881,5.04-2.643,6.708
			c-1.762,1.669-4.182,2.505-7.26,2.505c-1.074,0-2.215-0.147-3.42-0.442c-1.203-0.295-2.316-0.696-3.338-1.207l1.061-4.027
			c0.92,0.391,1.832,0.704,2.75,0.934c0.918,0.229,1.887,0.343,2.906,0.343c1.402,0,2.449-0.425,3.145-1.276
			c0.693-0.852,1.039-2.035,1.039-3.556v-1.395c-0.625,0.799-1.365,1.406-2.217,1.827c-0.852,0.419-1.828,0.627-2.926,0.627
			c-2.607,0-4.639-0.957-6.102-2.874c-1.459-1.922-2.191-4.444-2.191-7.573V30.965z M203.068,31.38c0,1.856,0.313,3.321,0.941,4.39
			c0.629,1.065,1.652,1.601,3.064,1.601c0.879,0,1.621-0.16,2.23-0.482c0.607-0.32,1.096-0.786,1.461-1.403v-9.232
			c-0.365-0.642-0.854-1.139-1.461-1.493c-0.609-0.354-1.34-0.53-2.191-0.53c-1.402,0-2.426,0.623-3.074,1.866
			c-0.648,1.244-0.971,2.868-0.971,4.87V31.38z"/>
		<path d="M219.961,30.594c0-3.17,0.887-5.766,2.662-7.789c1.773-2.023,4.227-3.034,7.355-3.034c3.143,0,5.602,1.009,7.375,3.024
			s2.662,4.615,2.662,7.799v0.411c0,3.197-0.889,5.799-2.662,7.809c-1.773,2.009-4.219,3.014-7.336,3.014
			c-3.156,0-5.621-1.005-7.395-3.014c-1.775-2.01-2.662-4.611-2.662-7.809V30.594z M225.697,31.005c0,1.938,0.342,3.494,1.02,4.666
			c0.68,1.172,1.781,1.758,3.301,1.758c1.48,0,2.563-0.59,3.248-1.768c0.691-1.178,1.033-2.731,1.033-4.656v-0.411
			c0-1.886-0.346-3.426-1.043-4.617c-0.693-1.191-1.783-1.788-3.277-1.788s-2.582,0.597-3.262,1.788
			c-0.678,1.191-1.02,2.731-1.02,4.617V31.005z"/>
		<path d="M250.98,14.958v5.204h3.73v4.026h-3.73v10.823c0,0.826,0.168,1.416,0.508,1.769c0.34,0.352,0.799,0.53,1.377,0.53
			c0.391,0,0.734-0.016,1.031-0.049c0.295-0.031,0.623-0.091,0.99-0.165l0.492,4.143c-0.641,0.197-1.277,0.343-1.904,0.44
			c-0.629,0.099-1.311,0.147-2.045,0.147c-1.979,0-3.498-0.542-4.568-1.628c-1.064-1.087-1.6-2.81-1.6-5.166V24.188h-3.123v-4.026
			h3.123v-5.204H250.98z"/>
		<path d="M279.518,23.618l-1.984,0.295l-7.814,20.686c-0.617,1.531-1.439,2.813-2.465,3.848C266.225,49.48,264.676,50,262.607,50
			c-0.484,0-0.941-0.039-1.367-0.118c-0.424-0.078-0.926-0.19-1.504-0.334l0.672-4.185c0.18,0.027,0.371,0.053,0.57,0.078
			c0.193,0.028,0.365,0.04,0.508,0.04c0.957,0,1.689-0.232,2.199-0.696c0.514-0.466,0.904-1.046,1.178-1.738l0.652-1.61
			l-6.738-17.503l-1.982-0.315v-3.456h10.408v3.456l-2.379,0.394l2.908,8.485l0.297,1.531l0.115,0.021l3.359-10.037l-2.395-0.394
			v-3.456h10.408V23.618z"/>
		<path d="M280.895,23.618v-3.456h8.328l0.273,2.476c0.631-0.917,1.383-1.625,2.262-2.122c0.877-0.497,1.896-0.745,3.064-0.745
			c2.629,0,4.672,1.026,6.127,3.083c1.451,2.057,2.182,4.761,2.182,8.111v0.415c0,3.143-0.73,5.667-2.182,7.583
			c-1.455,1.911-3.484,2.864-6.092,2.864c-1.109,0-2.1-0.206-2.961-0.617c-0.865-0.413-1.607-1.019-2.223-1.816v6.146l2.77,0.59
			v3.459h-11.256V46.13l2.77-0.59V24.209L280.895,23.618z M297.393,30.965c0-2.002-0.332-3.626-1-4.87
			c-0.67-1.243-1.689-1.866-3.064-1.866c-0.865,0-1.6,0.177-2.213,0.53c-0.605,0.354-1.088,0.857-1.441,1.513v9.311
			c0.354,0.604,0.836,1.061,1.441,1.375c0.613,0.314,1.361,0.472,2.252,0.472c1.391,0,2.406-0.545,3.055-1.63
			c0.648-1.088,0.971-2.563,0.971-4.419V30.965z"/>
		<path d="M315.857,41.827c-3.064,0-5.514-0.979-7.346-2.945c-1.834-1.963-2.752-4.46-2.752-7.482v-0.788
			c0-3.154,0.867-5.754,2.604-7.797s4.063-3.058,6.982-3.044c2.867,0,5.094,0.863,6.678,2.592s2.381,4.066,2.381,7.012v3.123
			h-12.691l-0.039,0.12c0.105,1.401,0.574,2.554,1.406,3.457c0.83,0.902,1.959,1.354,3.387,1.354c1.268,0,2.324-0.128,3.162-0.384
			c0.838-0.255,1.756-0.656,2.748-1.207l1.553,3.535c-0.877,0.694-2.014,1.276-3.406,1.747
			C319.127,41.592,317.574,41.827,315.857,41.827z M315.346,24.188c-1.059,0-1.898,0.407-2.514,1.218
			c-0.613,0.812-0.994,1.88-1.139,3.203l0.061,0.099h7.029v-0.512c0-1.217-0.283-2.19-0.854-2.918
			C317.357,24.553,316.496,24.188,315.346,24.188z"/>
	</g>
	<path d="M31.354,12.143c2.406-1.895,5.539-2.747,9.402-2.747c4.161,0,6.903,1.101,9.271,3.209c0.806,0.719,1.473,1.578,1.473,2.475
		V0C24.5,1.504,2.598,23,0.595,50H35.5v-6h9v6h7V26.913c0,0.297,0.201,0.595,0.003,0.882c-1.383,2.006-2.854,3.688-4.934,5.044
		c-1.132,0.872-1.745,1.697-2.097,2.578C44.119,36.298,44.073,36,44.073,39h-8.107c0.018-3,0.404-4.448,1.155-5.655
		c0.752-1.207,2.253-2.649,4.5-4.378c1.319-1.076,2.373-2.225,3.162-3.469c0.79-1.244,1.185-2.632,1.185-4.172
		c0-1.709-0.45-3.042-1.352-4.01c-0.902-0.964-2.188-1.446-3.859-1.446c-1.375,0-2.54,0.063-3.497,0.879
		C36.304,17.568,35.816,20,35.797,20h-7.912l-0.055,0.177C27.774,16.612,28.949,14.037,31.354,12.143z"/>
</g>
</svg>
